<svg width="600" height="400" xmlns="http://www.w3.org/2000/svg">
  <defs>
    <linearGradient id="grad2" x1="0%" y1="0%" x2="100%" y2="100%">
      <stop offset="0%" style="stop-color:#4facfe;stop-opacity:1" />
      <stop offset="100%" style="stop-color:#00f2fe;stop-opacity:1" />
    </linearGradient>
  </defs>
  <rect width="100%" height="100%" fill="url(#grad2)"/>
  
  <!-- Laptop mockup -->
  <rect x="100" y="80" width="400" height="240" rx="15" ry="15" fill="#333333"/>
  <rect x="110" y="90" width="380" height="200" rx="8" ry="8" fill="#ffffff"/>
  
  <!-- Website header -->
  <rect x="120" y="100" width="360" height="40" fill="#f8f9fa"/>
  <rect x="130" y="110" width="80" height="20" rx="10" fill="#7B3FE4"/>
  <rect x="390" y="110" width="60" height="20" rx="10" fill="#e9ecef"/>
  
  <!-- Hero section -->
  <rect x="120" y="150" width="360" height="100" fill="#ffffff"/>
  <rect x="140" y="170" width="200" height="15" rx="7" fill="#333333"/>
  <rect x="140" y="195" width="150" height="10" rx="5" fill="#666666"/>
  <rect x="140" y="220" width="80" height="20" rx="10" fill="#7B3FE4"/>
  
  <!-- Content sections -->
  <rect x="380" y="170" width="80" height="60" rx="8" fill="#f8f9fa"/>
  
  <!-- Laptop base -->
  <rect x="90" y="320" width="420" height="15" rx="7" ry="7" fill="#333333"/>
  
  <!-- Title -->
  <text x="300" y="380" text-anchor="middle" fill="#ffffff" font-family="Arial, sans-serif" font-size="20" font-weight="bold">Corporate Website Redesign</text>
</svg>