<svg width="600" height="400" xmlns="http://www.w3.org/2000/svg">
  <defs>
    <linearGradient id="grad1" x1="0%" y1="0%" x2="100%" y2="100%">
      <stop offset="0%" style="stop-color:#7B3FE4;stop-opacity:1" />
      <stop offset="100%" style="stop-color:#9D50BB;stop-opacity:1" />
    </linearGradient>
  </defs>
  <rect width="100%" height="100%" fill="url(#grad1)"/>
  
  <!-- Mobile phone mockup -->
  <rect x="200" y="50" width="200" height="300" rx="20" ry="20" fill="#ffffff" stroke="#e0e0e0" stroke-width="2"/>
  <rect x="210" y="80" width="180" height="240" rx="10" ry="10" fill="#f8f9fa"/>
  
  <!-- App interface elements -->
  <rect x="220" y="90" width="160" height="30" rx="15" fill="#ffffff"/>
  <circle cx="235" cy="105" r="8" fill="#7B3FE4"/>
  <rect x="250" y="100" width="100" height="10" rx="5" fill="#e9ecef"/>
  
  <!-- Product cards -->
  <rect x="220" y="140" width="70" height="70" rx="8" fill="#ffffff"/>
  <rect x="310" y="140" width="70" height="70" rx="8" fill="#ffffff"/>
  <rect x="225" y="145" width="60" height="40" rx="4" fill="#7B3FE4" opacity="0.1"/>
  <rect x="315" y="145" width="60" height="40" rx="4" fill="#7B3FE4" opacity="0.1"/>
  
  <!-- Bottom navigation -->
  <rect x="220" y="280" width="160" height="30" rx="15" fill="#ffffff"/>
  <circle cx="245" cy="295" r="6" fill="#7B3FE4"/>
  <circle cx="275" cy="295" r="6" fill="#e9ecef"/>
  <circle cx="305" cy="295" r="6" fill="#e9ecef"/>
  <circle cx="335" cy="295" r="6" fill="#e9ecef"/>
  
  <!-- Title -->
  <text x="300" y="380" text-anchor="middle" fill="#ffffff" font-family="Arial, sans-serif" font-size="20" font-weight="bold">E-Commerce Mobile App</text>
</svg>