<svg width="600" height="400" xmlns="http://www.w3.org/2000/svg">
  <defs>
    <linearGradient id="grad4" x1="0%" y1="0%" x2="100%" y2="100%">
      <stop offset="0%" style="stop-color:#f093fb;stop-opacity:1" />
      <stop offset="100%" style="stop-color:#f5576c;stop-opacity:1" />
    </linearGradient>
  </defs>
  <rect width="100%" height="100%" fill="url(#grad4)"/>
  
  <!-- Mobile phone mockup -->
  <rect x="200" y="50" width="200" height="300" rx="20" ry="20" fill="#ffffff" stroke="#e0e0e0" stroke-width="2"/>
  <rect x="210" y="80" width="180" height="240" rx="10" ry="10" fill="#f8f9fa"/>
  
  <!-- App header -->
  <rect x="220" y="90" width="160" height="40" fill="#f093fb"/>
  <circle cx="240" cy="110" r="8" fill="#ffffff"/>
  <rect x="260" y="105" width="80" height="10" rx="5" fill="#ffffff"/>
  <circle cx="360" cy="110" r="8" fill="#ffffff"/>
  
  <!-- Food categories -->
  <rect x="220" y="140" width="35" height="35" rx="17" fill="#ffffff"/>
  <rect x="265" y="140" width="35" height="35" rx="17" fill="#ffffff"/>
  <rect x="310" y="140" width="35" height="35" rx="17" fill="#ffffff"/>
  <rect x="355" y="140" width="35" height="35" rx="17" fill="#ffffff"/>
  
  <!-- Restaurant cards -->
  <rect x="220" y="190" width="160" height="70" rx="10" fill="#ffffff"/>
  <rect x="225" y="195" width="50" height="60" rx="8" fill="#f093fb" opacity="0.2"/>
  <rect x="285" y="200" width="80" height="8" rx="4" fill="#333333"/>
  <rect x="285" y="215" width="60" height="6" rx="3" fill="#666666"/>
  <rect x="285" y="230" width="40" height="6" rx="3" fill="#f093fb"/>
  
  <!-- Bottom navigation -->
  <rect x="220" y="280" width="160" height="30" rx="15" fill="#ffffff"/>
  <circle cx="245" cy="295" r="6" fill="#f093fb"/>
  <circle cx="275" cy="295" r="6" fill="#e9ecef"/>
  <circle cx="305" cy="295" r="6" fill="#e9ecef"/>
  <circle cx="335" cy="295" r="6" fill="#e9ecef"/>
  
  <!-- Title -->
  <text x="300" y="380" text-anchor="middle" fill="#ffffff" font-family="Arial, sans-serif" font-size="20" font-weight="bold">Food Delivery App</text>
</svg>