<svg width="600" height="400" xmlns="http://www.w3.org/2000/svg">
  <defs>
    <linearGradient id="grad3" x1="0%" y1="0%" x2="100%" y2="100%">
      <stop offset="0%" style="stop-color:#43e97b;stop-opacity:1" />
      <stop offset="100%" style="stop-color:#38f9d7;stop-opacity:1" />
    </linearGradient>
  </defs>
  <rect width="100%" height="100%" fill="url(#grad3)"/>
  
  <!-- Dashboard container -->
  <rect x="50" y="60" width="500" height="280" rx="15" ry="15" fill="#ffffff" stroke="#e0e0e0" stroke-width="2"/>
  
  <!-- Top navigation -->
  <rect x="60" y="70" width="480" height="50" fill="#f8f9fa"/>
  <rect x="70" y="85" width="100" height="20" rx="10" fill="#7B3FE4"/>
  <circle cx="500" cy="95" r="15" fill="#e9ecef"/>
  
  <!-- Sidebar -->
  <rect x="60" y="130" width="120" height="200" fill="#f8f9fa"/>
  <rect x="70" y="140" width="100" height="15" rx="7" fill="#7B3FE4"/>
  <rect x="70" y="165" width="100" height="12" rx="6" fill="#e9ecef"/>
  <rect x="70" y="185" width="100" height="12" rx="6" fill="#e9ecef"/>
  <rect x="70" y="205" width="100" height="12" rx="6" fill="#e9ecef"/>
  
  <!-- Main content area -->
  <rect x="190" y="130" width="350" height="200" fill="#ffffff"/>
  
  <!-- Stats cards -->
  <rect x="200" y="140" width="100" height="60" rx="8" fill="#7B3FE4" opacity="0.1"/>
  <rect x="320" y="140" width="100" height="60" rx="8" fill="#43e97b" opacity="0.1"/>
  <rect x="440" y="140" width="90" height="60" rx="8" fill="#f093fb" opacity="0.1"/>
  
  <!-- Chart area -->
  <rect x="200" y="220" width="330" height="100" rx="8" fill="#f8f9fa"/>
  
  <!-- Chart lines -->
  <polyline points="210,300 240,280 270,290 300,270 330,275 360,260 390,265 420,250 450,255 480,240 510,245" 
            stroke="#7B3FE4" stroke-width="3" fill="none"/>
  <polyline points="210,310 240,295 270,305 300,285 330,290 360,275 390,280 420,265 450,270 480,255 510,260" 
            stroke="#43e97b" stroke-width="3" fill="none"/>
  
  <!-- Title -->
  <text x="300" y="380" text-anchor="middle" fill="#ffffff" font-family="Arial, sans-serif" font-size="20" font-weight="bold">Healthcare Dashboard</text>
</svg>